<?xml version="1.0" encoding="utf-8"?><svg viewBox="0 0 109 99" xmlns="http://www.w3.org/2000/svg" xmlns:xlink="http://www.w3.org/1999/xlink"><style>:root>svg{display:none}:root>svg:target{display:block}</style><svg fill="none" viewBox="0 0 40 40" id="advantages--LED" xmlns="http://www.w3.org/2000/svg"><rect width="40" height="40" rx="20" fill="#E7EBF0"/><rect x=".5" y=".5" width="39" height="39" rx="19.5" stroke="url(#aa)" stroke-opacity=".3" style="mix-blend-mode:hard-light"/><path d="M12.5 18a7.5 7.5 0 0 1 15 0v7.5h-15V18Z" fill="#fff" stroke="#2E3A59"/><path fill="#2E3A59" d="M14 26h2v5h-2zM24 26h2v5h-2z"/><path fill="#A6ABBD" d="M13 23h14v2H13z"/><defs><linearGradient id="aa" x1="41.538" y1="40.769" x2="-2.154" y2="-1.231" gradientUnits="userSpaceOnUse"><stop stop-color="#fff"/><stop offset="1" stop-color="#fff" stop-opacity="0"/></linearGradient></defs></svg><svg fill="none" viewBox="0 0 40 40" id="advantages--lights_off" xmlns="http://www.w3.org/2000/svg"><rect width="40" height="40" rx="20" fill="#E7EBF0"/><rect x=".5" y=".5" width="39" height="39" rx="19.5" stroke="url(#ba)" stroke-opacity=".3" style="mix-blend-mode:hard-light"/><rect x="8.5" y="4.5" width="23" height="23" rx="11.5" fill="#fff" stroke="#2E3A59"/><rect x="16.5" y="32.5" width="7" height="4" rx="1.5" fill="#FFD058" stroke="#2E3A59"/><path d="M14.5 26.5h11V33a1.5 1.5 0 0 1-1.5 1.5h-8a1.5 1.5 0 0 1-1.5-1.5v-6.5Z" fill="#A6ABBD" stroke="#2E3A59"/><path fill="#2E3A59" d="M15 28h1v1h-1zM24 28h1v1h-1zM15 30h1v1h-1zM24 30h1v1h-1zM15 32h1v1h-1zM24 32h1v1h-1zM5.99 33.803 33.79 6.005l.707.707L6.697 34.51z"/><defs><linearGradient id="ba" x1="41.538" y1="40.769" x2="-2.154" y2="-1.231" gradientUnits="userSpaceOnUse"><stop stop-color="#fff"/><stop offset="1" stop-color="#fff" stop-opacity="0"/></linearGradient></defs></svg><svg fill="none" viewBox="0 0 40 40" id="advantages--power_off" xmlns="http://www.w3.org/2000/svg"><rect width="40" height="40" rx="20" fill="#E7EBF0"/><rect x=".5" y=".5" width="39" height="39" rx="19.5" stroke="url(#ca)" stroke-opacity=".3" style="mix-blend-mode:hard-light"/><rect x="8.5" y="8.5" width="23" height="23" rx="11.5" stroke="#2E3A59"/><rect x="12.5" y="12.5" width="15" height="15" rx="7.5" stroke="#2E3A59"/><path fill="#E7EBF0" d="M16 5h8v12h-8z"/><rect x="18.5" y="5.5" width="3" height="11" rx="1.5" fill="#FFD058" stroke="#2E3A59"/><defs><linearGradient id="ca" x1="41.538" y1="40.769" x2="-2.154" y2="-1.231" gradientUnits="userSpaceOnUse"><stop stop-color="#fff"/><stop offset="1" stop-color="#fff" stop-opacity="0"/></linearGradient></defs></svg><svg fill="none" viewBox="0 0 40 40" id="advantages--splitter" xmlns="http://www.w3.org/2000/svg"><rect width="40" height="40" rx="20" fill="#E7EBF0"/><rect x=".5" y=".5" width="39" height="39" rx="19.5" stroke="url(#da)" stroke-opacity=".3" style="mix-blend-mode:hard-light"/><path fill="#2E3A59" d="M15 15h1v10h-1z"/><path fill="#2E3A59" d="M15 15h1v10h-1z"/><path fill="#2E3A59" d="M15 15h1v10h-1z"/><path fill="#2E3A59" d="m20.567 9.358.866.5-6.684 11.577-.866-.5z"/><path fill="#2E3A59" d="m20.567 9.358.866.5-6.684 11.577-.866-.5z"/><path fill="#2E3A59" d="m20.567 9.358.866.5-6.684 11.577-.866-.5z"/><path fill="#2E3A59" d="m25.142 13.567.5.866-10.459 6.038-.5-.866z"/><path fill="#2E3A59" d="m25.142 13.567.5.866-10.459 6.038-.5-.866z"/><path fill="#2E3A59" d="m25.142 13.567.5.866-10.459 6.038-.5-.866z"/><path fill="#2E3A59" d="m25.643 25.567-.5.866-11.374-6.567.5-.866z"/><path fill="#2E3A59" d="m25.643 25.567-.5.866-11.374-6.567.5-.866z"/><path fill="#2E3A59" d="m25.643 25.567-.5.866-11.374-6.567.5-.866z"/><path fill="#2E3A59" d="m21.433 30.143-.866.5-7.794-13.5.866-.5z"/><path fill="#2E3A59" d="m21.433 30.143-.866.5-7.794-13.5.866-.5z"/><path fill="#2E3A59" d="m21.433 30.143-.866.5-7.794-13.5.866-.5z"/><rect x="6" y="13" width="14" height="14" rx="7" fill="#E7EBF0"/><path fill="#2E3A59" d="M12 8h1v24h-1z"/><path d="M27 20h-7" stroke="#2E3A59"/><path d="M12.5 14.522a5.5 5.5 0 0 1 0 10.956V14.522Z" fill="#fff" stroke="#2E3A59"/><rect x="20.5" y="6.5" width="3" height="3" rx="1.5" fill="#FFD058" stroke="#2E3A59"/><rect x="25.5" y="11.5" width="3" height="3" rx="1.5" fill="#FFD058" stroke="#2E3A59"/><rect x="26.5" y="18.5" width="3" height="3" rx="1.5" fill="#FFD058" stroke="#2E3A59"/><rect x="25.5" y="25.5" width="3" height="3" rx="1.5" fill="#FFD058" stroke="#2E3A59"/><rect x="20.5" y="30.5" width="3" height="3" rx="1.5" fill="#FFD058" stroke="#2E3A59"/><defs><linearGradient id="da" x1="41.538" y1="40.769" x2="-2.154" y2="-1.231" gradientUnits="userSpaceOnUse"><stop stop-color="#fff"/><stop offset="1" stop-color="#fff" stop-opacity="0"/></linearGradient></defs></svg><svg fill="none" viewBox="0 0 40 40" id="advantages--stability24_icon" xmlns="http://www.w3.org/2000/svg"><rect width="40" height="40" rx="20" fill="#E7EBF0"/><rect x=".5" y=".5" width="39" height="39" rx="19.5" stroke="url(#ea)" stroke-opacity=".3" style="mix-blend-mode:hard-light"/><path d="M10.67 29.054a7.018 7.018 0 0 1 0-9.925l8.465-8.465a7.01 7.01 0 0 1 9.914 0c2.972 2.973 2.677 7.891-.518 10.677a75.499 75.499 0 0 0-3.377 3.102c-1.205 1.193-2.538 2.654-3.804 4.104-2.788 3.192-7.708 3.48-10.68.507Z" fill="#fff" stroke="#2E3A59"/><path d="M9.106 27.398c-2.132-2.131-2.33-5.508-.401-7.799 1.723-2.047 3.783-4.398 5.547-6.143 1.551-1.534 3.604-3.322 5.44-4.86 2.29-1.92 5.661-1.72 7.79.409 2.523 2.524 2.278 6.706-.456 9.045-1.496 1.281-3.043 2.66-4.285 3.888-1.458 1.442-3.104 3.28-4.595 5.016-2.34 2.727-6.519 2.966-9.04.444Z" fill="#fff" stroke="#2E3A59"/><rect x="17.436" y="14.515" width="6" height="6" rx="3" transform="rotate(-45 17.436 14.515)" fill="#FFD058" stroke="#2E3A59"/><g filter="url(#eb)"><rect x="11" y="23" width="2" height="2" rx="1" transform="rotate(-45 11 23)" fill="#00C368"/></g><defs><linearGradient id="ea" x1="41.538" y1="40.769" x2="-2.154" y2="-1.231" gradientUnits="userSpaceOnUse"><stop stop-color="#fff"/><stop offset="1" stop-color="#fff" stop-opacity="0"/></linearGradient><filter id="eb" x="10.414" y="21" width="6" height="6" filterUnits="userSpaceOnUse" color-interpolation-filters="sRGB"><feFlood flood-opacity="0" result="BackgroundImageFix"/><feColorMatrix in="SourceAlpha" values="0 0 0 0 0 0 0 0 0 0 0 0 0 0 0 0 0 0 127 0" result="hardAlpha"/><feOffset dx="1" dy="1"/><feGaussianBlur stdDeviation="1"/><feColorMatrix values="0 0 0 0 0 0 0 0 0 0.764706 0 0 0 0 0.407843 0 0 0 0.8 0"/><feBlend in2="BackgroundImageFix" result="effect1_dropShadow_335_94"/><feBlend in="SourceGraphic" in2="effect1_dropShadow_335_94" result="shape"/></filter></defs></svg><svg fill="none" viewBox="0 0 73 88" id="offer--81" xmlns="http://www.w3.org/2000/svg"><g filter="url(#fa)"><rect x="5.5" y="5" width="54" height="70" rx="3" stroke="#2E3A59" stroke-width="2"/><path d="M13.5 5h38v5a3 3 0 0 1-3 3h-32a3 3 0 0 1-3-3V5Z" stroke="#2E3A59" stroke-width="2"/><g filter="url(#fb)"><path d="M13.5 61a3 3 0 0 1 3-3h32a3 3 0 0 1 3 3v2a3 3 0 0 1-3 3h-32a3 3 0 0 1-3-3v-2Z" stroke="#00C368" stroke-width="2"/></g></g><defs><filter id="fa" x=".5" y="0" width="72" height="88" filterUnits="userSpaceOnUse" color-interpolation-filters="sRGB"><feFlood flood-opacity="0" result="BackgroundImageFix"/><feColorMatrix in="SourceAlpha" values="0 0 0 0 0 0 0 0 0 0 0 0 0 0 0 0 0 0 127 0" result="hardAlpha"/><feOffset dx="4" dy="4"/><feGaussianBlur stdDeviation="4"/><feColorMatrix values="0 0 0 0 0.65098 0 0 0 0 0.670588 0 0 0 0 0.741176 0 0 0 1 0"/><feBlend in2="BackgroundImageFix" result="effect1_dropShadow_3_444"/><feBlend in="SourceGraphic" in2="effect1_dropShadow_3_444" result="shape"/></filter><filter id="fb" x="10.5" y="55" width="48" height="18" filterUnits="userSpaceOnUse" color-interpolation-filters="sRGB"><feFlood flood-opacity="0" result="BackgroundImageFix"/><feColorMatrix in="SourceAlpha" values="0 0 0 0 0 0 0 0 0 0 0 0 0 0 0 0 0 0 127 0" result="hardAlpha"/><feOffset dx="2" dy="2"/><feGaussianBlur stdDeviation="2"/><feColorMatrix values="0 0 0 0 0 0 0 0 0 0.764706 0 0 0 0 0.407843 0 0 0 0.4 0"/><feBlend in2="BackgroundImageFix" result="effect1_dropShadow_3_444"/><feBlend in="SourceGraphic" in2="effect1_dropShadow_3_444" result="shape"/></filter></defs></svg><svg fill="none" viewBox="0 0 80 88" id="offer--82" xmlns="http://www.w3.org/2000/svg"><g filter="url(#ga)" stroke="#2E3A59" stroke-width="2"><path d="M64 43.5V29C64 15.745 53.255 5 40 5h-8C18.745 5 8 15.745 8 29v14.5"/><path d="M13 35c0-12.703 10.297-23 23-23s23 10.297 23 23v8c0 12.703-10.297 23-23 23S13 55.703 13 43v-8Z"/><path d="M33.5 74.5H40c13.255 0 24-10.745 24-24V40"/><rect x="5" y="36" width="6" height="14" rx="3"/><rect x="61" y="36" width="6" height="14" rx="3"/></g><defs><filter id="ga" x="0" y="0" width="80" height="87.5" filterUnits="userSpaceOnUse" color-interpolation-filters="sRGB"><feFlood flood-opacity="0" result="BackgroundImageFix"/><feColorMatrix in="SourceAlpha" values="0 0 0 0 0 0 0 0 0 0 0 0 0 0 0 0 0 0 127 0" result="hardAlpha"/><feOffset dx="4" dy="4"/><feGaussianBlur stdDeviation="4"/><feColorMatrix values="0 0 0 0 0.65098 0 0 0 0 0.670588 0 0 0 0 0.741176 0 0 0 1 0"/><feBlend in2="BackgroundImageFix" result="effect1_dropShadow_3_451"/><feBlend in="SourceGraphic" in2="effect1_dropShadow_3_451" result="shape"/></filter></defs></svg><svg fill="none" viewBox="0 0 81 94" id="offer--83" xmlns="http://www.w3.org/2000/svg"><g filter="url(#ha)"><circle cx="31.69" cy="73.411" r="7" transform="rotate(-15 31.69 73.41)" stroke="#2E3A59" stroke-width="2"/><path stroke="#2E3A59" stroke-width="2" d="m30.997 32.185 28.978-7.765 7.764 28.978-28.978 7.765z"/><g filter="url(#hb)"><path stroke="#00C368" stroke-width="2" d="m43.105 31.011 5.795-1.553 2.071 7.728-5.796 1.552z"/></g></g><defs><filter id="ha" x="19.688" y="19.196" width="61.276" height="74.216" filterUnits="userSpaceOnUse" color-interpolation-filters="sRGB"><feFlood flood-opacity="0" result="BackgroundImageFix"/><feColorMatrix in="SourceAlpha" values="0 0 0 0 0 0 0 0 0 0 0 0 0 0 0 0 0 0 127 0" result="hardAlpha"/><feOffset dx="4" dy="4"/><feGaussianBlur stdDeviation="4"/><feColorMatrix values="0 0 0 0 0.65098 0 0 0 0 0.670588 0 0 0 0 0.741176 0 0 0 1 0"/><feBlend in2="BackgroundImageFix" result="effect1_dropShadow_3_458"/><feBlend in="SourceGraphic" in2="effect1_dropShadow_3_458" result="shape"/></filter><filter id="hb" x="39.88" y="26.234" width="18.316" height="19.73" filterUnits="userSpaceOnUse" color-interpolation-filters="sRGB"><feFlood flood-opacity="0" result="BackgroundImageFix"/><feColorMatrix in="SourceAlpha" values="0 0 0 0 0 0 0 0 0 0 0 0 0 0 0 0 0 0 127 0" result="hardAlpha"/><feOffset dx="2" dy="2"/><feGaussianBlur stdDeviation="2"/><feColorMatrix values="0 0 0 0 0 0 0 0 0 0.764706 0 0 0 0 0.407843 0 0 0 0.4 0"/><feBlend in2="BackgroundImageFix" result="effect1_dropShadow_3_458"/><feBlend in="SourceGraphic" in2="effect1_dropShadow_3_458" result="shape"/></filter></defs></svg><svg fill="none" viewBox="0 0 109 99" id="offer--84" xmlns="http://www.w3.org/2000/svg"><g filter="url(#ia)" stroke="#2E3A59" stroke-width="2"><path d="M15.16 61.542c-5.857-5.858-5.857-15.355 0-21.213l25.554-25.553c5.858-5.858 15.355-5.858 21.213 0l4.448 4.448c6.364 6.364 5.74 16.899-1.145 22.78-3.85 3.29-7.849 6.845-11.044 10.005-3.74 3.7-7.974 8.436-11.789 12.888-5.884 6.866-16.406 7.475-22.762 1.119l-4.474-4.474Z"/><path d="M13.136 59.287c-5.37-5.37-5.872-13.882-1.01-19.666 4.383-5.212 9.662-11.246 14.176-15.71 3.978-3.935 9.252-8.521 13.933-12.44 5.785-4.843 14.285-4.332 19.647 1.03l.4.4c6.365 6.364 5.74 16.899-1.145 22.78-3.85 3.29-7.848 6.845-11.043 10.005-3.74 3.7-7.975 8.436-11.79 12.888-5.883 6.866-16.406 7.475-22.762 1.12l-.406-.407Z"/><rect x="34.152" y="26.767" width="15.665" height="15.665" rx="7.833" transform="rotate(-45 34.152 26.767)"/><rect x="69.5" y="64" width="26" height="22" rx="1"/><path d="M71.5 41c7 2 11 5 11 15.999"/></g><defs><filter id="ia" x="3.773" y="3.137" width="104.727" height="95.862" filterUnits="userSpaceOnUse" color-interpolation-filters="sRGB"><feFlood flood-opacity="0" result="BackgroundImageFix"/><feColorMatrix in="SourceAlpha" values="0 0 0 0 0 0 0 0 0 0 0 0 0 0 0 0 0 0 127 0" result="hardAlpha"/><feOffset dx="4" dy="4"/><feGaussianBlur stdDeviation="4"/><feColorMatrix values="0 0 0 0 0.65098 0 0 0 0 0.670588 0 0 0 0 0.741176 0 0 0 1 0"/><feBlend in2="BackgroundImageFix" result="effect1_dropShadow_3_465"/><feBlend in="SourceGraphic" in2="effect1_dropShadow_3_465" result="shape"/></filter></defs></svg></svg>