<svg width="69" height="40" fill="none" xmlns="http://www.w3.org/2000/svg"><path d="M14.024 15.705h-1.542v14.398h1.542V15.705Zm-2.496 0H9.984v14.398h1.544V15.705Zm0 0H9.984v14.398h1.544V15.705Zm-2.498 0H7.488v14.398H9.03V15.705ZM14.024.328H7.488v14.398h6.536V.328Zm-7.49 0H0v29.775h6.534V.328Zm58.304 36.138-1.995-3.072h1.644l1.278 2.036 1.269-2.036h1.488l-1.982 2.963 2.195 3.337H67.08l-1.431-2.277-1.468 2.277h-1.477l2.134-3.228Zm-3.671.12v-.084c0-1.301-.634-2.096-1.692-2.096-1.055 0-1.701.783-1.701 2.084v.096c0 1.29.623 2.096 1.701 2.096 1.058 0 1.691-.807 1.691-2.096Zm-4.848.024v-.096c0-1.952 1.35-3.253 3.156-3.253 1.797 0 3.146 1.289 3.146 3.217v.096c0 1.964-1.35 3.24-3.156 3.24-1.807 0-3.146-1.288-3.146-3.204Zm-2.338-.024v-.096c0-1.398-.704-2.084-1.632-2.084-.984 0-1.69.686-1.69 2.084v.096c0 1.41.67 2.072 1.702 2.072 1.045 0 1.62-.723 1.62-2.072Zm-3.275 2.096v1.012h-1.419v-9.216h1.42v3.928c.341-.603 1.103-1.145 2.007-1.145 1.537 0 2.721 1.168 2.721 3.205v.096c0 2.024-1.138 3.253-2.721 3.253-.975 0-1.679-.494-2.008-1.133Zm-4.235-1.193v-.626h-.728c-1.08 0-1.772.253-1.772 1.024 0 .53.281.88.986.88.868 0 1.514-.47 1.514-1.278Zm-3.908.458c0-1.47 1.385-2 3.146-2h.762v-.325c0-.843-.282-1.264-1.115-1.264-.739 0-1.104.36-1.173.987H42.81c.116-1.47 1.256-2.084 2.628-2.084 1.373 0 2.452.578 2.452 2.301v4.132h-1.396v-.77c-.399.541-.939.89-1.877.89-1.127 0-2.054-.553-2.054-1.867Zm-10.208-4.553h1.42v.964c.293-.59.962-1.097 1.866-1.097.798 0 1.431.35 1.737 1.133.469-.783 1.313-1.133 2.075-1.133 1.128 0 2.042.71 2.042 2.446v3.987h-1.419v-3.891c0-.928-.386-1.325-1.091-1.325-.703 0-1.35.482-1.35 1.445v3.771h-1.42v-3.891c0-.928-.4-1.325-1.092-1.325-.703 0-1.349.482-1.349 1.445v3.771h-1.419v-6.3Zm-4.424 0h1.42v1.18c.387-.795.963-1.265 1.995-1.277v1.362c-1.243.011-1.995.421-1.995 1.758v3.277h-1.42v-6.3Zm-2.58 3.192v-.084c0-1.301-.634-2.096-1.691-2.096-1.056 0-1.7.783-1.7 2.084v.096c0 1.29.62 2.096 1.7 2.096 1.057 0 1.69-.807 1.69-2.096Zm-4.848.024v-.096c0-1.952 1.35-3.253 3.157-3.253 1.796 0 3.145 1.289 3.145 3.217v.096c0 1.964-1.349 3.24-3.156 3.24-1.807 0-3.146-1.288-3.146-3.204Zm-5.529-5.53h5.198v1.278h-3.637v2.566h2.863v1.24h-2.863v3.53h-1.56v-8.613Z" fill="#fff"/></svg>