<svg width="181" height="105" fill="none" xmlns="http://www.w3.org/2000/svg"><g clip-path="url(#a)"><path d="M36.87 41.225h-4.054V79.02h4.055V41.226Zm-6.562 0h-4.06V79.02h4.06V41.226Zm0 0h-4.06V79.02h4.06V41.226Zm-6.567 0h-4.054V79.02h4.054V41.226ZM36.871.86H19.687v37.796H36.87V.86Zm-19.692 0H0v78.16h17.18V.86Zm153.284 94.861-5.245-8.064h4.322l3.358 5.346 3.336-5.346h3.914l-5.212 7.78 5.772 8.759h-4.351l-3.764-5.976-3.858 5.976h-3.884l5.612-8.475Zm-9.653.317v-.222c0-3.415-1.665-5.503-4.446-5.503-2.775 0-4.474 2.056-4.474 5.472v.253c0 3.383 1.637 5.502 4.474 5.502 2.781 0 4.446-2.119 4.446-5.502Zm-12.744.063v-.253c0-5.123 3.547-8.54 8.298-8.54 4.723 0 8.27 3.385 8.27 8.445v.253c0 5.154-3.547 8.507-8.299 8.507-4.75 0-8.269-3.384-8.269-8.412Zm-6.148-.063v-.253c0-3.67-1.849-5.472-4.29-5.472-2.588 0-4.441 1.803-4.441 5.472v.253c0 3.7 1.759 5.439 4.473 5.439 2.747 0 4.258-1.898 4.258-5.44Zm-8.609 5.502v2.656h-3.73V80.005h3.73v10.308c.899-1.58 2.903-3.004 5.278-3.004 4.041 0 7.155 3.067 7.155 8.412v.253c0 5.313-2.992 8.539-7.155 8.539-2.563 0-4.412-1.297-5.278-2.973Zm-11.134-3.131v-1.645h-1.915c-2.836 0-4.657.665-4.657 2.689 0 1.392.739 2.309 2.592 2.309 2.281 0 3.98-1.234 3.98-3.353ZM111.9 99.611c0-3.858 3.642-5.25 8.271-5.25h2.004v-.853c0-2.214-.743-3.32-2.931-3.32-1.943 0-2.902.947-3.085 2.592h-3.609c.306-3.858 3.302-5.471 6.91-5.471 3.609 0 6.445 1.518 6.445 6.04v10.847h-3.669v-2.023c-1.049 1.422-2.47 2.34-4.935 2.34-2.964 0-5.401-1.455-5.401-4.902ZM85.064 87.657h3.73v2.53c.772-1.55 2.531-2.878 4.907-2.878 2.098 0 3.763.918 4.567 2.973 1.233-2.055 3.453-2.973 5.457-2.973 2.964 0 5.367 1.866 5.367 6.42v10.467h-3.73V93.982c0-2.435-1.016-3.478-2.869-3.478-1.849 0-3.547 1.264-3.547 3.794v9.898H95.21V93.982c0-2.435-1.05-3.478-2.87-3.478-1.848 0-3.546 1.264-3.546 3.794v9.898h-3.73V87.657Zm-11.633 0h3.735v3.1c1.016-2.088 2.53-3.321 5.245-3.353v3.574c-3.27.031-5.245 1.106-5.245 4.617v8.601h-3.735V87.657Zm-6.784 8.38v-.22c0-3.416-1.665-5.504-4.445-5.504-2.775 0-4.469 2.056-4.469 5.472v.253c0 3.383 1.633 5.502 4.47 5.502 2.78 0 4.444-2.119 4.444-5.502Zm-12.743.064v-.253c0-5.123 3.547-8.54 8.298-8.54 4.723 0 8.27 3.385 8.27 8.445v.253c0 5.154-3.547 8.507-8.298 8.507-4.751 0-8.27-3.384-8.27-8.412ZM39.368 81.586h13.666v3.352H43.47v6.736h7.526v3.257H43.47v9.265h-4.102v-22.61Z" fill="#FF6B30"/></g><defs><clipPath id="a"><path fill="#fff" d="M0 0h181v105H0z"/></clipPath></defs></svg>